<?xml version="1.0" encoding="UTF-8" standalone="no"?>
<!-- Created with Inkscape (http://www.inkscape.org/) -->

<svg
   xmlns:dc="http://purl.org/dc/elements/1.1/"
   xmlns:cc="http://creativecommons.org/ns#"
   xmlns:rdf="http://www.w3.org/1999/02/22-rdf-syntax-ns#"
   xmlns:svg="http://www.w3.org/2000/svg"
   xmlns="http://www.w3.org/2000/svg"
   xmlns:sodipodi="http://sodipodi.sourceforge.net/DTD/sodipodi-0.dtd"
   xmlns:inkscape="http://www.inkscape.org/namespaces/inkscape"
   width="600"
   height="100"
   viewBox="0 0 600.00001 100"
   id="svg2"
   version="1.1"
   inkscape:version="0.91 r13725"
   sodipodi:docname="logomark-2.svg">
  <defs
     id="defs4" />
  <sodipodi:namedview
     id="base"
     pagecolor="#ffffff"
     bordercolor="#666666"
     borderopacity="1.0"
     inkscape:pageopacity="0.0"
     inkscape:pageshadow="2"
     inkscape:zoom="0.98994949"
     inkscape:cx="241.1018"
     inkscape:cy="200.8122"
     inkscape:document-units="px"
     inkscape:current-layer="text4136"
     showgrid="false"
     units="px"
     inkscape:window-width="1920"
     inkscape:window-height="1057"
     inkscape:window-x="-8"
     inkscape:window-y="-8"
     inkscape:window-maximized="1"
     inkscape:snap-text-baseline="true" />
  <metadata
     id="metadata7">
    <rdf:RDF>
      <cc:Work
         rdf:about="">
        <dc:format>image/svg+xml</dc:format>
        <dc:type
           rdf:resource="http://purl.org/dc/dcmitype/StillImage" />
        <dc:title></dc:title>
      </cc:Work>
    </rdf:RDF>
  </metadata>
  <g
     inkscape:label="レイヤー 1"
     inkscape:groupmode="layer"
     id="layer1"
     transform="translate(0,-952.36216)">
    <g
       style="font-style:normal;font-variant:normal;font-weight:100;font-stretch:normal;font-size:90px;line-height:125%;font-family:'AR DESTINE';-inkscape-font-specification:'AR DESTINE, Thin';text-align:center;letter-spacing:0px;word-spacing:0px;writing-mode:lr-tb;text-anchor:middle;fill:#000000;fill-opacity:1;stroke:none;stroke-width:1px;stroke-linecap:butt;stroke-linejoin:miter;stroke-opacity:1"
       id="text4136">
      <path
         d="m 8.8183594,992.43054 0,-7.11914 q 0,-2.8125 2.1093746,-4.92187 2.109375,-2.10938 5.009766,-2.10938 l 28.740234,0 9.492188,14.15039 -45.3515626,0 z m 38.3203126,42.53906 -31.201172,0 q -2.900391,0 -5.009766,-2.1094 -2.1093746,-2.1093 -2.1093746,-5.0097 l 0,-32.60746 14.2382816,0 0,25.57616 16.96289,0 0,-7.1191 -4.658203,0 -9.492187,-14.15042 28.300781,0 0,28.30082 q 0,2.9004 -2.021485,5.0097 -2.021484,2.1094 -5.009765,2.1094 z"
         style="fill:#1b998b;fill-opacity:1"
         id="path4143" />
      <path
         d="m 59.794922,1000.9559 9.492187,-14.15036 25.927735,0 q 2.988281,0 5.009766,2.10938 2.10937,2.02148 2.10937,4.92187 l 0,7.11911 -42.539058,0 z m 7.11914,34.0137 q -2.90039,0 -5.009765,-2.1094 -2.109375,-2.1093 -2.109375,-5.0097 l 0,-16.9629 q 0,-2.9004 2.109375,-5.0098 2.109375,-2.1094 5.009765,-2.1094 l 8.964844,0 9.492188,14.1504 -11.337891,0 0,2.9004 14.150391,0 0,-17.0508 14.150386,0 0,31.2012 -35.419918,0 z"
         style="fill:#1b998b;fill-opacity:1"
         id="path4145" />
      <path
         d="m 147.68555,1034.9696 0,-34.0137 -39.72657,0 0,-14.15036 46.84571,0 q 2.90039,0 4.92187,2.10938 2.10938,2.02148 2.10938,4.92187 l 0,41.13281 -14.15039,0 z m -19.86328,0 0,-31.2012 14.15039,0 0,31.2012 -14.15039,0 z m -19.86329,0 0,-31.2012 14.23829,0 0,31.2012 -14.23829,0 z"
         style="fill:#1b998b;fill-opacity:1"
         id="path4147" />
      <path
         d="m 203.05664,1017.9188 -8.96484,0 -9.49219,-14.1504 25.48828,0 0,7.1192 q 0,2.9004 -2.10937,5.0097 -2.02149,2.0215 -4.92188,2.0215 z m 0.43945,17.0508 -28.82812,0 q -2.90039,0 -5.00977,-2.1094 -2.10937,-2.1093 -2.10937,-5.0097 l 0,-34.01371 q 0,-2.8125 2.10937,-4.92187 2.10938,-2.10938 5.00977,-2.10938 l 28.38867,0 q 2.90039,0 4.92188,2.10938 2.10937,2.02148 2.10937,4.92187 l 0,7.11911 -28.30078,0 0,19.8633 31.20117,0 -9.49219,14.1504 z"
         style="fill:#1b998b;fill-opacity:1"
         id="path4149" />
      <path
         d="m 235.75195,1000.9559 0,-14.15036 15.9961,0 9.49218,14.15036 -25.48828,0 z m -17.05078,34.0137 0,-48.16406 14.23828,0 0,48.16406 -14.23828,0 z"
         style="fill:#1b998b;fill-opacity:1"
         id="path4151" />
      <path
         d="m 263.52539,1000.9559 0,-7.11911 q 0,-2.8125 2.10938,-4.92187 2.10937,-2.10938 5.00976,-2.10938 l 25.92774,0 9.49218,14.15036 -42.53906,0 z m 35.50781,34.0137 -28.82812,0 -9.49219,-14.1504 24.25781,0 -18.28125,-17.0508 20.39063,0 q 6.85547,5.8887 13.71094,11.6895 5.27343,5.2734 5.27343,8.1738 l 0,4.2188 q 0,2.6367 -2.28515,4.9218 -2.19727,2.1973 -4.7461,2.1973 z"
         style="fill:#1b998b;fill-opacity:1"
         id="path4153" />
      <path
         d="m 419.00391,1034.9696 q -4.83399,0 -9.66797,-5.1855 -3.69141,-3.9551 -7.73438,-11.0743 -2.8125,-4.9218 -5.53711,-9.9316 -2.8125,4.9219 -5.625,9.8437 -4.21875,7.4708 -7.64648,11.0743 -4.92188,5.2734 -9.75586,5.2734 -4.48242,0 -7.82227,-3.2519 -3.25195,-3.3399 -3.25195,-7.8223 l 0,-45.61525 14.23828,0 0,34.98045 q 3.86719,-6.7676 7.82227,-13.62303 6.06445,-9.14062 12.04101,-9.14062 6.94336,0 14.23828,12.83205 2.72461,5.0097 5.53711,9.9316 l 0,-34.98045 14.23828,0 0,45.61525 q 0,4.5703 -3.25195,7.8223 -3.25195,3.2519 -7.82226,3.2519 z"
         style="fill:#1b998b;fill-opacity:1"
         id="path4155" />
      <path
         d="m 435.79102,1000.9559 0,-7.11911 q 0,-2.8125 2.10937,-4.92187 2.10938,-2.10938 5.00977,-2.10938 l 28.30078,0 q 2.98828,0 5.00976,2.10938 2.10938,2.02148 2.10938,4.92187 l 0,7.11911 -42.53906,0 z m 35.41992,34.0137 -28.30078,0 q -2.90039,0 -5.00977,-2.1094 -2.10937,-2.1093 -2.10937,-5.0097 l 0,-24.0821 14.23828,0 0,17.0508 14.15039,0 0,-17.0508 14.15039,0 0,24.0821 q 0,2.9004 -2.10938,5.0097 -2.10937,2.1094 -5.00976,2.1094 z"
         style="fill:#1b998b;fill-opacity:1"
         id="path4157" />
      <path
         d="m 501.00586,1000.9559 0,-14.15036 15.99609,0 9.49219,14.15036 -25.48828,0 z m -17.05078,34.0137 0,-48.16406 14.23828,0 0,48.16406 -14.23828,0 z"
         style="fill:#1b998b;fill-opacity:1"
         id="path4159" />
      <path
         d="m 527.37305,1034.9696 0,-65.21484 14.23828,0 0,65.21484 -14.23828,0 z"
         style="fill:#1b998b;fill-opacity:1"
         id="path4161" />
      <path
         d="m 548.64258,1000.9559 0,-7.11911 q 0,-2.8125 2.10937,-4.92187 2.10938,-2.10938 5.00977,-2.10938 l 21.26953,0 0,-17.05078 14.15039,0 0,31.20114 -42.53906,0 z m 7.11914,34.0137 q -2.90039,0 -5.00977,-2.1094 -2.10937,-2.1093 -2.10937,-5.0097 l 0,-24.0821 14.23828,0 0,17.0508 14.15039,0 0,-17.0508 14.15039,0 0,31.2012 -35.41992,0 z"
         style="fill:#1b998b;fill-opacity:1"
         id="path4163" />
    </g>
  </g>
</svg>
